<?xml version="1.0" encoding="utf-8"?>
<!-- Generator: Adobe Illustrator 16.0.0, SVG Export Plug-In . SVG Version: 6.00 Build 0)  -->
<!DOCTYPE svg PUBLIC "-//W3C//DTD SVG 1.1//EN" "http://www.w3.org/Graphics/SVG/1.1/DTD/svg11.dtd">
<svg version="1.1" id="Layer_1" xmlns="http://www.w3.org/2000/svg" xmlns:xlink="http://www.w3.org/1999/xlink" x="0px" y="0px"
	 width="800px" height="1280px" viewBox="0 0 800 1280" enable-background="new 0 0 800 1280" xml:space="preserve">
<rect x="13" y="161" fill="#FFD08E" width="778" height="154"/>
<path fill="#4DE3FF" d="M721.777,271c-28.599,0-55.408-7.653-78.5-21.018c-23.091,13.365-49.9,21.018-78.5,21.018
	c-28.599,0-55.408-7.653-78.5-21.018c-23.091,13.365-49.9,21.018-78.5,21.018c-28.599,0-55.408-7.653-78.5-21.018
	C306.187,263.347,279.376,271,250.777,271c-28.599,0-55.408-7.653-78.5-21.018C149.187,263.347,122.376,271,93.777,271
	c-29.289,0-56.698-8.032-80.161-22H13v86h778v-80.063C770.118,265.217,746.625,271,721.777,271z"/>
</svg>
